PathFileType	4	(X/Y/Z)	Patient4_TMGait_0pt6_01_left_37.trc.trc
DataRate	CameraRate	NumFrames	NumMarkers	Units	OrigDataRate	OrigDataStartFrame	OrigNumFrames
80.924855491330	80.924855491330	6	33	mm	80.924855491330	106	       141
Frame#	Time	Sacral			L.Shoulder			Chest			R.Shoulder			Neck			R.ASIS			L.ASIS			R.Thigh.Superior			R.Thigh.Lateral			R.Thigh.Inferior			R.Patella			L.Thigh.Superior			L.Thigh.Lateral			L.Thigh.Inferior			L.Patella			L.Shank.Superior			L.Shank.Lateral			L.Shank.Inferior			R.Shank.Superior			R.Shank.Lateral			R.Shank.Inferior			R.Heel			R.Midfoot.Superior			R.Midfoot.Lateral			R.Toe			L.Heel			L.Midfoot.Lateral			L.Midfoot.Superior			L.Toe			L.Elbow			L.Wrist			R.Elbow			R.Wrist			
		X1	Y1	Z1	X2	Y2	Z2	X3	Y3	Z3	X4	Y4	Z4	X5	Y5	Z5	X6	Y6	Z6	X7	Y7	Z7	X8	Y8	Z8	X9	Y9	Z9	X10	Y10	Z10	X11	Y11	Z11	X12	Y12	Z12	X13	Y13	Z13	X14	Y14	Z14	X15	Y15	Z15	X16	Y16	Z16	X17	Y17	Z17	X18	Y18	Z18	X19	Y19	Z19	X20	Y20	Z20	X21	Y21	Z21	X22	Y22	Z22	X23	Y23	Z23	X24	Y24	Z24	X25	Y25	Z25	X26	Y26	Z26	X27	Y27	Z27	X28	Y28	Z28	X29	Y29	Z29	X30	Y30	Z30	X31	Y31	Z31	X32	Y32	Z32	X33	Y33	Z33	

106	46.357500000000	731.890311942855	1012.558318908793	501.742764694790	872.571702498114	1445.183480517110	315.585826830820	998.661247621072	1375.320901034086	458.386733902471	940.092956831198	1441.493604957143	644.093966414313	876.243510419532	1501.320279612723	471.067148178746	966.128702019997	945.188505579036	595.811906983350	929.157055189211	971.964656080442	324.388342865350	983.142408836887	737.620104103235	563.253779007868	890.936751254785	634.543093555484	622.730811225923	958.941519271065	578.033447541920	540.694061873183	949.672074505016	492.298746875574	544.846530890341	1019.485316626179	795.995000047121	346.543844804902	975.064694663974	666.769850842498	270.063041649695	1085.198745435981	609.974284021242	320.656153920810	1107.220128985505	529.332862040259	312.365993166945	1064.821404936709	453.180984776703	309.248091610905	948.744193463815	359.666106851467	269.845558872300	993.521129583155	236.313223987018	322.577030568449	919.645689604817	405.096109553110	547.877809998988	842.946799963437	300.562754974177	599.774425697218	888.893810880410	207.505618340377	536.144432707765	754.697733311591	43.512707550756	487.312348208638	923.459168996721	96.478476668976	538.452069920645	831.678287343964	36.570846632813	568.937899542896	1039.915234009702	41.248663179748	576.692421877986	849.609440758817	100.085224403061	372.826303146260	913.532869610244	82.137513805346	287.303111863834	1007.189915010171	132.414749174982	301.288720912592	1120.710062334929	61.923704410732	265.234158116936	805.001381075553	1091.945743371091	213.005585708831	827.608790544091	833.188101250558	211.490333316494	1029.884761650014	1101.718440976030	756.339340948421	1259.931775900893	983.366361869309	735.024575575602	
107	46.369857142857	730.984198998942	1012.494399720632	502.295941582309	872.133908939281	1444.677377145477	315.911886897683	998.478620426444	1374.554280704889	458.380852587148	940.543212855613	1441.060878559990	644.177531741578	876.150863139464	1500.788906051027	471.254718696860	965.070339088668	944.439534151441	596.050460007507	927.997181393338	971.327299307898	324.544259871750	979.734109920137	736.470886621001	563.267117562013	886.378003067951	634.243932548287	623.157318850489	953.240240849026	577.157604123649	540.957054370829	943.056425717081	491.866827156806	545.072713836188	1017.659422996405	795.126139873393	347.200729426307	973.129079884166	665.803715329387	270.782426498478	1082.442815017435	608.868166684811	322.704653578180	1105.705191017612	530.774269478603	314.583342225700	1067.925584501523	454.623013714922	310.323563355042	959.584115730900	353.286976351244	269.254285018529	1013.158840853612	233.042540844493	321.527236974259	912.859294135109	404.686513418264	547.977503355643	836.017680394125	300.283274979056	599.915137729289	881.659772584438	207.193350821307	536.095656817869	747.280320066379	43.236301254210	487.333431034457	915.886310211776	96.388616961524	538.370192656614	824.152258369329	36.525097758100	568.978236660800	1032.379433002641	41.342729775628	576.731891797821	879.802918320684	85.971186409625	369.877347686382	945.513623577049	73.544112065731	284.685435943359	1035.052150557993	130.445141088348	299.650731493371	1153.706819566617	68.766539102349	264.024722543425	797.013363918401	1092.841540425047	215.092248779809	812.702288924409	833.636740952361	215.685811560087	1036.933479825805	1103.350167291188	755.294482137499	1272.365722356645	996.878427663928	732.023054402085	
108	46.382214285714	730.126798519187	1012.174309927568	502.676984924207	871.791753185258	1443.984620881228	316.125096001055	998.318579073895	1373.568421636446	458.315724335084	940.893987422714	1440.334664062434	644.185999797744	876.070943258183	1500.042424057417	471.382208244514	964.081121071571	943.521942724092	596.168707453557	926.920312730890	970.385190293319	324.575662642916	976.542432025479	735.197190203757	563.335517383977	882.027035693637	633.796307818146	623.499667347045	947.826342507158	576.180493153613	541.168296235025	936.756700972789	491.290180567757	545.196621848913	1015.479236040010	793.465792429842	347.833405851336	970.694671532502	664.286185839411	271.325580605103	1078.976101725920	606.959117677371	324.928692511258	1103.431514709396	531.581514320493	316.950198793623	1070.242729529664	455.835808909466	311.491055414314	970.172263331460	347.244572405375	268.691684866126	1032.187719401159	230.751453811998	320.754435072021	906.297855462187	404.138107008973	547.990898745858	829.275911384038	299.907066093352	600.008246917595	874.495793203442	206.772617660930	535.961786754837	739.852089084025	42.891192366324	487.326982978618	908.260364223340	96.254396914429	538.203346992041	816.608140247488	36.472901723440	569.007478383562	1024.839254857384	41.465082258584	576.761593392713	909.941308829480	73.785447704575	367.211553260481	977.256260947572	66.702563524077	282.524208135809	1062.265097358023	129.850742474653	298.479424859548	1185.444310011001	77.042784703842	263.711108777389	789.225307367698	1093.709103677773	217.131323939842	798.523137279296	834.272558685860	219.606982086835	1043.640307593015	1104.756791084316	754.084322983721	1283.706752166365	1010.032449182938	729.000999190865	
109	46.394571428571	729.327592197459	1011.628770465573	502.907621423239	871.528078944955	1443.137481174200	316.219481072237	998.173937224707	1372.411666631395	458.182657633058	941.147239879514	1439.367602106738	644.109940146124	875.997134386014	1499.120971548131	471.443175328631	963.185091810346	942.477549738490	596.164954169641	925.915673114893	969.189395250724	324.490209565610	973.586844588976	733.831246891209	563.433615576931	877.930658677943	633.225011191406	623.749282166616	942.736901365335	575.122330257710	541.307406046052	930.811854694096	490.579141336445	545.206996503230	1012.991986353709	791.157979821084	348.441478446741	967.899566234677	662.355734574221	271.655353365366	1075.016496085909	604.469726952544	327.213462604968	1100.623188083735	531.886733573688	319.365343339698	1071.891460875125	456.878386489763	312.699210745841	980.350252521469	341.723930823475	268.224311550568	1050.276104228451	229.493778908553	320.302269414439	899.997608548686	403.470561903097	547.921297315669	822.748115176916	299.460408315488	600.062243783853	867.418497439060	206.263022148404	535.756736478617	732.406716032893	42.508213475524	487.298468531181	900.593659611217	96.087510438352	537.974380032075	809.049405783490	36.417008859338	569.024683282832	1017.298567143105	41.607111473723	576.782436527601	939.345309830289	63.769571682521	365.008356212687	1008.077258384089	61.666832188263	280.965501158081	1088.314556268310	130.578635868866	297.832381267016	1215.372916174303	86.445076454888	264.312976317528	781.760467233484	1094.532105573707	219.108517373151	785.118026089428	835.034930339622	223.203086874417	1049.985046174960	1105.963491060488	752.721706019815	1293.940138553995	1022.702042551266	725.969202398860	
110	46.406928571429	728.595685277571	1010.899138623152	503.011338263220	871.318536528644	1442.175037419262	316.191143510795	998.035982337726	1371.141192139580	457.970693682449	941.310456478088	1438.225023609788	643.938636092954	875.921344781306	1498.072212907595	471.427206079428	962.404921707093	941.350821444511	596.035719972100	924.972763295067	967.806922405478	324.292933941226	970.884838938692	732.408812416399	563.516208651791	874.138874675605	632.558240886150	623.893428916328	938.003558889445	574.006671317799	541.344595867235	925.254327145164	489.750828495397	545.089006109376	1010.278221040256	788.392967079062	349.016940270100	964.906244319066	660.163540766772	271.768292777815	1070.818656310056	601.649167994653	329.437021651810	1097.524859073543	531.831309850455	321.720697275717	1073.001369786864	457.789351138369	313.894182667897	989.907960946593	336.855290589243	267.944072623168	1067.071486980467	229.212016649327	320.194667037905	893.993251366384	402.709927961908	547.770568684099	816.462089917061	298.974629775851	600.084095767551	860.445917891143	205.688352977579	535.495399649225	724.941988077278	42.122045116222	487.256360181823	892.906074106766	95.904402232676	537.715036494516	801.481801172597	36.359945363271	569.028474962834	1009.762032532230	41.756105324926	576.795298951697	967.272726332818	56.002862102765	363.452894686574	1037.209508463127	58.337447487105	280.125983230261	1112.646687326224	132.431718565380	297.720131691976	1242.921603616332	96.495096496617	265.724006566103	774.748013618215	1095.290166056549	220.996780836674	772.549823665670	835.868264280389	226.428801683711	1055.935156961696	1107.001375786058	751.223362472185	1303.060695794938	1034.774565260953	722.941921463701	
111	46.419285714286	727.940940533045	1010.033807525323	503.010007557343	871.133570040289	1441.140124446456	316.038666596028	997.895321333992	1369.817961358981	457.667246199687	941.396816106069	1436.979284965640	643.661256291914	875.834365229393	1496.947056169335	471.321653288745	961.760276125579	940.185456247641	595.776620761946	924.085234533673	966.313893221381	323.985112988907	968.450895204419	730.965625563901	563.526034968159	870.697257946050	631.824760538307	623.917904511485	933.649316247272	572.857229237426	541.248043934173	920.105858524002	488.827073109338	544.828655533680	1007.455481430405	785.393954317400	349.542557869112	961.888520477742	657.857662840602	271.702808084545	1066.655517219604	598.747578885510	331.481744653283	1094.386035256856	531.548407667426	323.909059097523	1073.702682024392	458.579292060666	315.028675648934	998.600671144760	332.704693148236	267.957096581782	1082.217472223276	229.741480698554	320.440291651931	888.313019360711	401.885216089776	547.540289264595	810.441778726819	298.483345924829	600.079178243651	853.595389978470	205.074710609411	535.193440926266	717.459855675552	41.766647361896	487.211519068120	885.223663522379	95.725153821288	537.463650237442	793.912945332184	36.303725174626	569.017497348564	1002.234679299590	41.896143012223	576.801092458964	992.958055469456	50.401969595503	362.717369128081	1063.845383572336	56.477277721136	280.082865562516	1134.695046727301	135.085993586633	298.113828322946	1267.523542339842	106.579669302697	267.732085453882	768.313283764136	1095.959279172635	222.757611119521	760.898085306669	836.720987588261	229.244133384323	1061.447677025695	1107.901405948946	749.609752858556	1311.073097698847	1046.151370689506	719.938656073024	
